<svg width="24" height="24" viewBox="0 0 24 24" fill="none" xmlns="http://www.w3.org/2000/svg">
<path d="M6.78 21H17.25C19.32 21 21 19.2568 21 17.0778V9.73152C21 8.26848 20.22 6.92996 18.96 6.24514L13.74 3.44358C12.66 2.85214 11.37 2.85214 10.26 3.44358L5.04 6.24514C3.78 6.92996 3 8.23735 3 9.73152V17.0778C3 19.2568 4.68 21 6.78 21ZM8.1 14.7743C8.1 12.5331 9.84 10.7276 12 10.7276C14.16 10.7276 15.9 12.5331 15.9 14.7743V16.642C15.9 17.1712 15.51 17.5759 15 17.5759C14.49 17.5759 14.1 17.1712 14.1 16.642V14.7743C14.1 13.5603 13.17 12.5953 12 12.5953C10.83 12.5953 9.9 13.5603 9.9 14.7743V16.642C9.9 17.1712 9.51 17.5759 9 17.5759C8.49 17.5759 8.1 17.1712 8.1 16.642V14.7743Z" fill="black"/>
</svg>
